# xmcd CD database file
#
# Track frame offsets:
#	150
#	20874
#	37236
#	56365
#	83597
#	98025
#	120607
#	142572
#	162680
#	185704
#	200089
#
# Disc length: 2917 seconds
#
# Revision: 0
# Processed by: cddbd v1.5.2PL0 Copyright (c) Steve Scherf et al.
# Submitted via: CDex 1.51
#
DISCID=980b630b
DTITLE=Davy Knowles and Back Door Slam - Coming Up For Air
DYEAR=2009
DGENRE=Blues
TTITLE0=Coming Up For Air
TTITLE1=Riverbed
TTITLE2=Mistakes
TTITLE3=Hear Me Lord
TTITLE4=Amber's Song
TTITLE5=Tear Down the Walls
TTITLE6=You Can't Take This Back
TTITLE7=Country Girl
TTITLE8=Keep On Searching
TTITLE9=Saving Myself
TTITLE10=Taste Of Danger (Bonus, W/ Jonatha Brooke)
EXTD=YEAR: 2009
EXTT0=
EXTT1=
EXTT2=
EXTT3=
EXTT4=
EXTT5=
EXTT6=
EXTT7=
EXTT8=
EXTT9=
EXTT10=
PLAYORDER=
